<?xml version="1.0" standalone="no"?>
<!DOCTYPE svg PUBLIC "-//W3C//DTD SVG 20010904//EN"
 "http://www.w3.org/TR/2001/REC-SVG-20010904/DTD/svg10.dtd">
<svg version="1.0" xmlns="http://www.w3.org/2000/svg"
 width="304.000000pt" height="304.000000pt" viewBox="0 0 304.000000 304.000000"
 preserveAspectRatio="xMidYMid meet">
<metadata>
Created by potrace 1.11, written by Peter Selinger 2001-2013
</metadata>
<g transform="translate(0.000000,304.000000) scale(0.100000,-0.100000)"
fill="#000000" stroke="none">
<path d="M0 3024 c0 -8 5 -12 10 -9 6 3 10 10 10 16 0 5 -4 9 -10 9 -5 0 -10
-7 -10 -16z"/>
<path d="M383 3026 c9 -7 19 -31 21 -53 3 -33 0 -41 -18 -49 -25 -11 -28 -43
-3 -58 25 -16 53 5 50 38 -1 19 3 26 17 26 23 0 31 25 22 70 -7 34 -9 35 -57
38 -44 2 -48 1 -32 -12z"/>
<path d="M816 3009 c-7 -35 7 -59 33 -59 26 0 41 21 41 57 0 31 -2 33 -34 33
-30 0 -34 -4 -40 -31z"/>
<path d="M1175 3030 c3 -5 15 -10 25 -10 10 0 22 5 25 10 4 6 -7 10 -25 10
-18 0 -29 -4 -25 -10z"/>
<path d="M185 3014 c-19 -20 -16 -43 8 -58 20 -13 50 2 55 26 3 16 -23 48 -38
48 -5 0 -16 -7 -25 -16z"/>
<path d="M1689 3004 c-17 -21 0 -48 34 -52 18 -2 27 2 32 18 13 41 -38 68 -66
34z"/>
<path d="M0 2944 c0 -31 3 -35 21 -32 48 7 51 68 4 68 -22 0 -25 -4 -25 -36z"/>
<path d="M271 2902 c-20 -38 31 -71 59 -37 6 8 9 23 5 35 -8 25 -51 27 -64 2z"/>
<path d="M637 2879 c-32 -18 -14 -69 25 -69 19 0 42 35 33 50 -12 19 -40 28
-58 19z"/>
<path d="M543 2823 c-25 -10 -14 -50 21 -77 38 -28 61 -26 72 7 5 16 -2 27
-27 48 -34 29 -43 32 -66 22z"/>
<path d="M290 2791 c-12 -23 -5 -47 16 -55 21 -8 42 3 49 25 14 42 -44 68 -65
30z"/>
<path d="M679 2784 c-9 -11 -10 -20 -2 -32 15 -24 44 -27 59 -7 28 38 -27 75
-57 39z"/>
<path d="M950 2775 c-6 -8 -9 -23 -6 -33 4 -13 1 -22 -9 -26 -24 -9 -18 -39
14 -71 58 -59 70 -67 93 -63 29 4 32 46 3 62 -39 23 -72 76 -46 76 16 0 23 40
11 55 -7 8 -20 15 -30 15 -10 0 -23 -7 -30 -15z"/>
<path d="M88 2773 c7 -3 16 -2 19 1 4 3 -2 6 -13 5 -11 0 -14 -3 -6 -6z"/>
<path d="M60 2731 c0 -6 4 -13 10 -16 6 -3 7 1 4 9 -7 18 -14 21 -14 7z"/>
<path d="M106 2715 c-11 -8 -15 -15 -9 -15 6 0 16 7 23 15 16 19 11 19 -14 0z"/>
<path d="M476 2699 c-30 -36 -31 -42 -10 -63 21 -21 26 -20 58 9 39 36 32 85
-14 85 -4 0 -20 -14 -34 -31z"/>
<path d="M0 2685 c0 -22 4 -34 10 -30 13 8 13 52 0 60 -6 4 -10 -8 -10 -30z"/>
<path d="M611 2702 c-20 -38 31 -71 59 -37 6 8 9 23 5 35 -8 25 -51 27 -64 2z"/>
<path d="M1590 2710 c0 -5 -7 -7 -15 -4 -21 8 -45 -14 -45 -42 0 -23 30 -41
49 -30 5 4 12 -2 16 -13 8 -25 31 -34 56 -21 20 11 26 45 9 55 -6 4 -8 11 -5
16 14 21 -6 49 -36 49 -16 0 -29 -4 -29 -10z"/>
<path d="M2004 2656 c-11 -28 1 -51 25 -51 28 0 47 25 38 49 -8 20 -56 21 -63
2z"/>
<path d="M318 2649 c-21 -12 -23 -40 -6 -57 34 -34 79 7 52 46 -17 25 -22 26
-46 11z"/>
<path d="M679 2634 c-17 -21 0 -48 34 -52 18 -2 27 2 32 18 13 41 -38 68 -66
34z"/>
<path d="M1784 2636 c-12 -31 0 -51 31 -51 27 0 30 3 30 30 0 25 -4 30 -28 33
-17 2 -29 -2 -33 -12z"/>
<path d="M2082 2628 c-23 -23 -7 -68 24 -68 14 0 44 27 44 40 0 13 -30 40 -44
40 -6 0 -17 -5 -24 -12z"/>
<path d="M162 2608 c-16 -16 -15 -33 3 -68 18 -35 36 -37 76 -9 43 31 40 65
-8 78 -48 14 -56 14 -71 -1z"/>
<path d="M413 2604 c-9 -24 10 -49 38 -49 20 0 24 5 24 30 0 25 -4 30 -28 33
-18 2 -29 -2 -34 -14z"/>
<path d="M870 2555 c-18 -22 -8 -50 21 -53 34 -4 54 20 39 47 -12 24 -42 27
-60 6z"/>
<path d="M1901 2552 c-14 -27 8 -55 40 -50 19 2 24 9 24 33 0 25 -4 31 -27 33
-18 2 -30 -3 -37 -16z"/>
<path d="M1557 2523 c-23 -22 19 -103 53 -103 33 0 40 29 18 72 -19 36 -52 51
-71 31z"/>
<path d="M331 2492 c-14 -27 8 -55 40 -50 19 2 24 9 24 33 0 25 -4 31 -27 33
-18 2 -30 -3 -37 -16z"/>
<path d="M462 2498 c-18 -18 -15 -46 7 -60 15 -9 17 -15 8 -30 -16 -24 3 -53
32 -52 14 0 20 -4 17 -12 -2 -6 1 -20 8 -29 26 -37 83 6 59 45 -7 10 -10 26
-7 33 9 25 -23 47 -57 40 -30 -6 -30 -5 -18 16 23 36 -19 79 -49 49z"/>
<path d="M990 2485 c-26 -31 13 -82 44 -56 19 16 21 42 4 59 -16 16 -33 15
-48 -3z"/>
<path d="M1311 2486 c-10 -12 -16 -13 -33 -3 -16 10 -22 9 -37 -9 -9 -12 -27
-25 -39 -28 -26 -8 -30 -47 -8 -65 16 -13 56 1 56 19 0 6 6 10 13 10 7 0 18 5
25 12 6 6 26 12 44 12 30 1 33 4 33 31 0 23 -5 31 -21 33 -11 2 -26 -4 -33
-12z"/>
<path d="M1420 2475 c-17 -21 -8 -50 18 -53 12 -2 22 -9 22 -16 0 -19 59 -58
83 -54 31 4 38 57 8 65 -11 3 -22 11 -25 19 -3 8 -12 14 -20 14 -9 0 -20 9
-26 20 -13 23 -42 26 -60 5z"/>
<path d="M878 2459 c-37 -21 -9 -77 32 -64 22 7 27 44 8 63 -14 14 -18 14 -40
1z"/>
<path d="M237 2453 c-15 -14 -6 -53 13 -63 43 -23 86 22 53 55 -15 15 -54 20
-66 8z"/>
<path d="M1861 2446 c-9 -11 -10 -20 -1 -36 21 -39 83 -7 67 34 -8 20 -50 21
-66 2z"/>
<path d="M106 2438 c-3 -7 -4 -38 -3 -68 2 -44 6 -55 20 -58 33 -6 45 15 44
76 -2 54 -3 57 -30 60 -16 2 -29 -2 -31 -10z"/>
<path d="M2035 2400 c-8 -27 12 -52 39 -48 16 2 21 10 21 33 0 25 -4 31 -27
33 -19 2 -28 -2 -33 -18z"/>
<path d="M1043 2384 c-16 -41 46 -73 67 -34 9 16 8 25 -1 36 -16 19 -58 18
-66 -2z"/>
<path d="M1632 2378 c-18 -18 -14 -46 9 -58 26 -14 49 3 49 35 0 32 -35 46
-58 23z"/>
<path d="M693 2354 c-9 -24 10 -49 38 -49 20 0 24 5 24 30 0 25 -4 30 -28 33
-18 2 -29 -2 -34 -14z"/>
<path d="M897 2353 c-14 -13 -7 -54 11 -60 9 -3 25 -15 36 -25 10 -11 24 -17
32 -14 8 3 14 -1 14 -9 0 -19 40 -55 62 -55 9 0 22 9 27 19 13 23 -20 71 -49
71 -10 0 -20 9 -23 20 -3 11 -13 23 -24 27 -10 3 -22 12 -26 20 -8 14 -49 18
-60 6z"/>
<path d="M1095 2316 c-22 -22 -24 -29 -15 -47 8 -15 19 -20 35 -16 43 8 50
-58 9 -73 -14 -6 -28 -19 -31 -30 -4 -16 -8 -18 -19 -9 -8 6 -24 9 -36 6 -12
-4 -28 -1 -34 4 -20 17 -48 2 -61 -31 -10 -26 -9 -30 9 -36 27 -8 20 -48 -10
-52 -15 -2 -25 4 -32 20 -10 22 -10 21 -5 -4 7 -38 1 -35 -26 10 -13 20 -29
41 -36 45 -7 4 -13 16 -13 26 0 24 -25 45 -45 37 -9 -3 -19 -16 -24 -28 -6
-17 -16 -23 -37 -23 -23 0 -33 -8 -51 -41 -24 -43 -23 -68 3 -78 22 -9 42 4
56 35 14 31 24 35 48 19 13 -9 13 -12 -2 -21 -21 -12 -24 -49 -5 -68 10 -11 7
-13 -16 -9 -15 3 -26 3 -23 1 2 -2 -7 -15 -21 -29 -24 -24 -24 -26 -7 -39 35
-26 94 -16 94 16 0 10 7 19 15 19 8 0 23 9 33 21 l20 20 7 -28 c5 -15 8 -37 7
-48 -2 -18 -1 -17 8 3 12 28 50 30 57 2 8 -29 21 -15 15 16 -6 31 14 47 41 33
17 -9 17 -8 7 10 -6 12 -17 21 -25 21 -21 0 -14 69 10 97 14 16 23 20 36 12
23 -12 47 -2 54 22 5 15 10 17 25 9 13 -7 28 -7 46 0 22 9 29 7 41 -10 25 -36
78 -16 71 27 -2 12 4 19 20 21 32 5 45 34 26 61 -15 21 -15 22 8 16 44 -11 65
44 26 68 -20 13 -48 -6 -48 -33 0 -13 -6 -16 -27 -12 -18 3 -30 -1 -40 -13
-12 -17 -13 -17 -13 8 0 19 -7 31 -24 39 -14 6 -26 20 -28 32 -4 31 -43 32
-73 2z"/>
<path d="M1553 2333 c-19 -7 -16 -51 4 -62 37 -20 71 27 41 57 -13 13 -24 14
-45 5z"/>
<path d="M1944 2286 c-8 -32 2 -46 31 -46 29 0 47 27 34 52 -15 28 -57 23 -65
-6z"/>
<path d="M832 2284 c-22 -10 -35 -44 -21 -60 28 -34 106 7 83 44 -11 18 -40
25 -62 16z"/>
<path d="M25 2240 c-4 -12 -2 -27 4 -34 8 -10 7 -17 -4 -26 -21 -17 -19 -47 4
-60 21 -11 51 -4 51 11 0 5 11 19 25 31 34 29 32 59 -6 81 -41 23 -66 22 -74
-3z"/>
<path d="M1622 2248 c-18 -18 -14 -46 8 -58 15 -8 24 -6 40 10 16 16 18 25 10
40 -12 22 -40 26 -58 8z"/>
<path d="M585 2230 c-14 -44 44 -69 65 -29 9 15 8 24 -1 35 -18 21 -57 18 -64
-6z"/>
<path d="M2076 2234 c-20 -20 -20 -27 2 -47 35 -32 92 -16 92 25 0 35 -66 51
-94 22z"/>
<path d="M1742 2214 c-34 -28 -40 -52 -20 -72 18 -18 30 -15 66 17 36 34 39
43 16 65 -21 21 -25 20 -62 -10z"/>
<path d="M1557 2193 c-8 -13 -3 -106 6 -120 12 -19 45 -16 56 6 6 10 7 21 4
25 -4 4 -7 26 -8 49 0 38 -3 42 -27 45 -14 2 -28 -1 -31 -5z"/>
<path d="M508 2161 c-9 -15 -15 -17 -29 -8 -35 22 -67 -35 -34 -63 15 -12 55
-5 55 11 0 5 11 7 24 3 15 -3 29 1 40 11 20 20 20 29 0 49 -21 21 -41 20 -56
-3z"/>
<path d="M150 2145 c-26 -31 13 -82 44 -56 21 17 21 57 0 65 -23 9 -30 8 -44
-9z"/>
<path d="M362 2092 c-14 -14 -22 -16 -35 -8 -21 14 -47 -1 -58 -32 -7 -19 -6
-21 9 -14 25 13 42 4 42 -23 0 -13 -6 -26 -12 -28 -10 -4 -10 -6 0 -6 6 -1 12
-8 12 -16 0 -9 7 -18 16 -22 10 -4 14 -13 10 -29 -7 -25 16 -54 42 -54 35 0
-8 -23 -45 -24 -35 -1 -38 -3 -38 -31 0 -28 2 -30 43 -31 28 -1 48 -8 56 -19
9 -13 20 -16 39 -11 35 8 38 52 5 66 -15 6 -17 9 -7 9 21 1 49 33 49 55 0 10
7 24 15 32 8 9 15 24 15 34 0 10 7 20 15 24 20 7 19 55 -1 63 -21 8 -48 -9
-52 -31 -2 -10 -12 -26 -23 -37 -10 -10 -16 -25 -13 -32 3 -8 -2 -19 -10 -26
-12 -10 -15 -8 -21 8 -3 10 -12 22 -20 24 -8 4 -11 14 -8 26 7 27 -15 54 -40
47 -13 -3 -17 0 -13 11 3 8 6 17 6 19 0 2 11 2 25 -2 47 -12 77 44 35 66 -15
8 -24 6 -38 -8z"/>
<path d="M1966 2081 c-23 -25 -6 -61 28 -61 36 0 52 62 20 74 -24 9 -29 8 -48
-13z"/>
<path d="M1130 2075 c-25 -30 15 -69 50 -48 13 9 16 7 16 -9 -1 -28 29 -46 52
-32 35 23 22 67 -22 67 -16 0 -28 6 -31 18 -8 23 -47 25 -65 4z"/>
<path d="M2412 2078 c-28 -28 -1 -75 36 -63 26 8 34 41 15 60 -18 18 -35 19
-51 3z"/>
<path d="M2285 2060 c-14 -44 44 -69 65 -29 9 15 8 24 -1 35 -18 21 -57 18
-64 -6z"/>
<path d="M1352 2048 c-7 -7 -12 -22 -12 -35 0 -19 -4 -22 -22 -18 -35 8 -49
-7 -51 -54 -1 -31 3 -46 15 -54 14 -9 23 -5 50 23 18 18 28 31 22 27 -8 -4
-11 2 -10 17 0 13 4 22 7 21 3 -2 17 2 32 10 16 8 29 10 32 4 4 -5 17 -9 30
-9 18 0 26 7 31 24 9 37 -4 49 -42 43 -19 -3 -36 -1 -39 4 -8 13 -29 11 -43
-3z"/>
<path d="M1867 2039 c-9 -13 -17 -16 -22 -10 -3 6 -17 11 -30 11 -18 0 -26 -7
-31 -25 -3 -14 -12 -25 -20 -25 -8 0 -23 -9 -34 -20 -16 -16 -18 -25 -10 -39
7 -14 6 -22 -5 -31 -23 -19 -18 -45 18 -79 21 -21 39 -31 53 -28 13 2 26 -3
33 -15 12 -19 46 -24 56 -8 3 5 12 7 20 3 20 -7 45 14 45 38 0 24 -35 43 -57
30 -31 -16 -59 -7 -97 31 l-36 36 30 10 c20 8 30 18 30 31 0 12 7 21 15 21 9
0 18 6 21 14 4 10 15 13 38 9 41 -6 63 15 46 46 -14 27 -45 27 -63 0z"/>
<path d="M2048 2023 c7 -3 16 -2 19 1 4 3 -2 6 -13 5 -11 0 -14 -3 -6 -6z"/>
<path d="M195 1980 c-15 -46 46 -70 67 -25 6 14 16 25 21 25 26 0 -6 13 -42
17 -33 4 -40 1 -46 -17z"/>
<path d="M2076 1973 c-6 -14 -5 -15 5 -6 7 7 10 15 7 18 -3 3 -9 -2 -12 -12z"/>
<path d="M645 1972 c-6 -4 -23 -26 -39 -50 -26 -39 -28 -44 -13 -60 20 -22 3
-48 -33 -54 -20 -2 -25 -9 -25 -33 0 -25 4 -30 28 -33 32 -4 32 -4 11 -44 -15
-29 -15 -32 3 -50 27 -27 51 -14 74 39 13 32 16 50 9 62 -5 10 -6 21 -3 25 12
12 54 6 70 -10 11 -10 25 -13 45 -9 25 6 29 4 26 -10 -5 -28 -36 -43 -48 -25
-6 10 -10 11 -10 3 0 -25 -2 -28 -16 -36 -16 -9 -19 -53 -4 -62 13 -8 -6 -48
-31 -63 -10 -7 -19 -8 -19 -3 0 6 5 13 10 16 17 11 11 44 -11 56 -19 10 -26 6
-60 -32 -21 -24 -38 -50 -39 -57 0 -7 -11 -30 -25 -50 -25 -36 -25 -37 -6 -56
17 -17 23 -18 51 -6 26 11 33 10 50 -5 19 -17 60 -13 60 6 0 5 8 9 19 9 10 0
24 7 31 15 7 8 20 15 30 15 29 0 45 27 32 55 -7 14 -17 25 -24 25 -22 1 36 40
59 40 25 0 46 31 37 53 -8 22 -42 28 -59 10 -17 -17 -49 -10 -42 10 2 6 14 11
27 9 53 -6 68 48 21 73 -51 26 -46 35 14 32 45 -1 59 2 70 16 10 14 14 15 18
4 3 -7 -4 -19 -14 -25 -10 -7 -19 -17 -19 -24 0 -6 -7 -19 -16 -29 -18 -20
-11 -59 12 -59 8 0 14 -3 14 -6 0 -15 -47 -90 -63 -102 -21 -16 -19 -51 5 -66
13 -8 21 -6 36 7 10 9 26 17 35 17 9 0 22 9 29 20 17 26 26 25 30 -2 3 -26 41
-37 62 -19 10 9 15 8 20 -4 3 -10 16 -15 34 -13 40 3 54 -8 40 -31 -13 -21 -4
-63 18 -86 15 -15 15 -17 -1 -35 -22 -25 -10 -43 26 -38 26 4 28 2 23 -21 -11
-49 -28 -80 -47 -85 -14 -3 -18 -12 -15 -33 3 -27 4 -28 58 -26 110 5 162 1
178 -14 16 -15 38 -17 47 -3 3 5 18 7 33 4 19 -4 33 0 41 10 25 30 -14 70 -48
49 -26 -16 -46 -4 -22 14 23 15 27 43 10 60 -8 8 -7 16 2 30 17 29 6 49 -38
69 -65 30 -83 47 -68 67 15 21 31 22 39 2 3 -8 17 -15 31 -15 20 0 25 -5 25
-24 0 -43 28 -54 83 -31 13 6 17 2 17 -16 0 -13 4 -31 9 -39 13 -19 -25 -48
-42 -31 -13 13 -44 15 -51 3 -2 -4 7 -8 22 -7 23 0 28 -6 40 -47 12 -45 15
-48 47 -48 27 0 33 -4 32 -19 -1 -14 -8 -19 -25 -18 -31 2 -51 -26 -36 -50 16
-26 57 -23 69 5 12 28 49 31 40 3 -6 -19 17 -51 36 -51 5 0 18 9 28 19 16 16
20 17 25 5 7 -18 40 -18 56 1 17 21 8 50 -18 53 -33 5 -78 52 -60 63 7 5 20 9
29 9 35 0 64 36 64 79 0 23 3 41 7 41 5 0 8 -8 8 -18 0 -38 37 -54 64 -26 20
20 20 29 -1 50 -10 10 -23 27 -28 38 -6 12 -18 22 -28 24 -24 5 -49 -18 -44
-39 3 -13 0 -15 -17 -11 -11 3 -26 9 -33 14 -7 6 -33 10 -57 10 -31 1 -51 7
-62 20 -10 10 -31 19 -48 19 -21 1 -24 3 -11 6 20 5 45 30 45 45 0 4 -10 16
-22 28 -17 16 -19 23 -10 32 17 17 15 57 -3 64 -8 3 -32 7 -52 7 -33 2 -38 5
-38 27 0 14 -6 30 -13 35 -20 16 -4 45 25 45 18 0 24 5 21 17 -2 10 -12 19
-22 21 -11 2 -27 13 -36 24 -11 14 -23 19 -37 14 -41 -13 -39 -62 3 -72 34 -9
30 -24 -6 -24 -16 0 -30 -4 -30 -10 0 -15 -55 -39 -77 -34 -26 7 -63 -12 -63
-31 0 -8 -9 -15 -19 -15 -11 0 -23 -5 -27 -12 -5 -7 -10 -4 -15 11 -5 12 -14
23 -21 25 -7 2 -30 9 -51 15 -30 10 -41 10 -53 0 -11 -9 -18 -9 -26 -1 -7 7
-18 12 -25 12 -7 0 -22 9 -34 21 -21 21 -19 45 6 82 12 17 15 15 48 -24 29
-34 41 -41 62 -37 14 3 28 1 31 -3 3 -5 14 -9 25 -9 12 0 19 -7 19 -19 0 -10
7 -24 15 -31 31 -25 69 16 47 51 -10 15 -8 18 11 21 14 2 23 11 25 27 4 27 -3
36 -40 45 -37 8 -61 -17 -53 -55 6 -26 4 -29 -20 -29 -28 0 -44 25 -26 43 14
14 14 54 1 62 -6 4 -8 16 -5 26 8 24 -11 49 -35 49 -10 0 -20 7 -24 15 -6 17
-42 20 -51 5 -3 -5 -14 -10 -24 -10 -10 0 -25 -7 -32 -16 -12 -14 -14 -14 -20
3 -5 15 -15 18 -68 15 -34 -2 -74 -10 -89 -18 -27 -14 -52 -4 -52 21 0 7 -6
18 -14 24 -13 11 -14 50 -2 70 4 5 -2 15 -13 20 -23 13 -23 13 -36 3z m725
-424 c0 -9 79 -48 97 -48 20 0 16 -28 -6 -39 -14 -8 -20 -7 -25 4 -3 8 -12 15
-19 15 -8 0 -20 7 -27 15 -7 8 -22 15 -34 15 -26 1 -60 25 -52 38 6 11 66 11
66 0z m-90 -18 c-20 -13 -40 -13 -40 0 0 6 12 10 28 10 21 0 24 -2 12 -10z
m-20 -160 c-16 -30 -47 -43 -54 -23 -4 9 -5 16 -4 17 2 1 12 6 23 13 32 19 48
16 35 -7z m80 -65 c7 -9 19 -14 25 -11 13 5 35 -12 35 -26 0 -4 -7 -8 -15 -8
-8 0 -15 5 -15 12 0 6 -3 8 -6 5 -4 -4 -2 -12 3 -19 14 -18 25 -78 14 -78 -5
0 -14 7 -21 15 -7 8 -18 14 -24 14 -6 -1 -19 1 -29 6 -12 5 -24 1 -37 -10 -19
-17 -20 -17 -20 3 0 11 5 24 10 27 6 3 10 15 10 25 0 18 36 60 51 60 3 0 12
-7 19 -15z m290 -30 c0 -8 -2 -15 -4 -15 -2 0 -6 7 -10 15 -3 8 -1 15 4 15 6
0 10 -7 10 -15z m78 -7 c-7 -19 -38 -22 -38 -4 0 10 9 16 21 16 12 0 19 -5 17
-12z m-58 -35 c0 -5 -4 -15 -10 -23 -11 -18 -25 -7 -17 15 6 15 27 21 27 8z"/>
<path d="M1074 1966 c-10 -26 1 -51 22 -54 16 -2 20 -9 16 -30 -3 -22 2 -31
22 -42 23 -12 29 -12 42 1 8 9 16 35 17 60 2 40 0 44 -23 47 -14 2 -29 10 -33
18 -10 18 -56 18 -63 0z"/>
<path d="M1443 1958 c-24 -11 -38 -41 -28 -58 3 -5 0 -18 -7 -30 -19 -30 1
-55 42 -55 41 0 61 25 42 55 -10 17 -9 23 8 40 16 16 18 25 10 40 -12 22 -33
24 -67 8z"/>
<path d="M10 1939 c-9 -15 -8 -24 1 -35 18 -21 57 -18 64 6 14 44 -44 69 -65
29z"/>
<path d="M163 1903 c-7 -2 -13 -18 -13 -35 0 -30 -1 -30 -18 -15 -24 22 -38
21 -54 -2 -7 -10 -23 -21 -35 -25 -27 -8 -36 -32 -23 -57 13 -24 45 -25 62 -1
19 25 56 44 63 32 3 -6 -1 -10 -9 -10 -8 0 -20 -9 -26 -20 -9 -17 -6 -27 20
-58 30 -36 30 -37 10 -51 -22 -15 -26 -41 -8 -59 18 -18 46 -14 58 7 13 25 13
27 -6 45 -14 14 -14 16 0 16 8 0 21 10 27 22 10 18 8 24 -8 37 -26 21 -37 51
-18 51 19 0 26 13 31 62 5 56 -14 77 -53 61z"/>
<path d="M1533 1866 c1 -10 10 -24 20 -30 21 -14 51 2 54 30 2 15 1 14 -7 -3
-5 -13 -18 -23 -30 -23 -12 0 -25 10 -30 23 -8 17 -9 18 -7 3z"/>
<path d="M1259 1794 c-17 -21 0 -48 34 -52 18 -2 27 2 32 18 13 41 -38 68 -66
34z"/>
<path d="M1528 1803 c7 -3 16 -2 19 1 4 3 -2 6 -13 5 -11 0 -14 -3 -6 -6z"/>
<path d="M1556 1769 c-5 -25 -2 -37 11 -48 16 -15 16 -15 3 2 -10 14 -11 23
-3 36 6 10 8 23 3 30 -4 8 -10 1 -14 -20z"/>
<path d="M252 1778 c-19 -19 -14 -56 8 -63 24 -8 50 10 50 34 0 19 -19 41 -35
41 -6 0 -16 -5 -23 -12z"/>
<path d="M1614 1754 c6 -13 13 -18 17 -12 4 6 12 7 18 4 8 -5 5 -15 -9 -33
-17 -21 -17 -27 -5 -39 7 -8 27 -14 44 -14 17 0 31 -4 31 -10 0 -16 50 -12 56
5 7 18 37 19 64 3 24 -16 55 0 55 27 0 18 -7 23 -57 44 -16 6 -39 16 -52 22
-30 14 -56 5 -63 -21 -5 -19 -6 -19 -36 3 -18 12 -41 27 -53 33 -19 10 -20 9
-10 -12z"/>
<path d="M2147 1753 c-4 -3 -7 -14 -7 -23 0 -13 -6 -16 -23 -13 -32 6 -51 -19
-41 -54 4 -16 6 -32 4 -38 -2 -5 -4 -19 -5 -30 -1 -11 -5 -28 -10 -39 -5 -11
-4 -26 2 -35 15 -24 -10 -43 -59 -45 -24 -1 -45 -9 -53 -19 -6 -9 -15 -14 -18
-11 -10 11 -47 -17 -47 -35 0 -40 60 -52 74 -15 8 20 26 8 26 -17 0 -10 9 -24
19 -31 15 -9 17 -15 8 -28 -17 -28 -1 -52 30 -48 22 2 29 9 31 31 3 21 -2 29
-19 35 -15 6 -18 11 -11 16 7 4 12 18 12 32 0 15 7 27 18 30 9 3 24 9 33 14
10 5 21 4 27 -2 13 -13 48 -2 56 17 13 35 -31 69 -59 45 -19 -16 -29 4 -13 29
14 22 51 19 76 -6 17 -16 24 -16 46 0 25 18 17 49 -17 65 -26 13 -26 14 -12
42 16 31 12 55 -11 64 -12 4 -12 9 -3 24 7 11 9 27 6 36 -6 16 -47 22 -60 9z
m23 -68 c0 -12 -19 -12 -23 0 -4 9 -1 12 9 8 7 -3 14 -7 14 -8z"/>
<path d="M2962 1738 c-30 -30 3 -77 40 -57 22 12 24 55 2 63 -22 8 -28 8 -42
-6z"/>
<path d="M0 1680 c0 -41 14 -52 38 -28 16 16 15 33 -4 52 -25 25 -34 19 -34
-24z"/>
<path d="M1295 1700 c-14 -44 44 -69 65 -29 9 15 8 24 -1 35 -18 21 -57 18
-64 -6z"/>
<path d="M456 1677 c-23 -17 -17 -49 12 -62 36 -16 25 -23 -18 -11 -60 15 -75
2 -75 -65 0 -53 0 -54 30 -54 23 0 31 5 33 23 2 12 8 22 13 22 6 0 8 -8 4 -19
-3 -11 2 -26 12 -38 10 -10 15 -14 10 -7 -4 6 -5 19 -1 28 7 19 50 22 57 4 4
-10 6 -10 6 -1 1 7 -8 18 -19 25 -31 20 -26 56 8 60 23 3 27 8 30 40 2 27 -1
39 -15 46 -35 18 -70 22 -87 9z"/>
<path d="M2272 1668 c-18 -18 -14 -46 7 -58 38 -20 71 13 51 51 -12 21 -40 25
-58 7z"/>
<path d="M1526 1648 c-9 -12 -16 -17 -16 -11 0 8 -7 10 -17 6 -15 -6 -14 -8 5
-16 12 -6 22 -15 22 -21 0 -7 12 -13 27 -14 15 -1 31 -9 35 -17 12 -20 67 -29
101 -16 23 9 28 16 25 39 -3 25 -6 27 -57 29 -41 1 -56 6 -68 22 -18 27 -38
27 -57 -1z"/>
<path d="M1914 1616 c-12 -31 0 -51 31 -51 27 0 30 3 30 30 0 25 -4 30 -28 33
-17 2 -29 -2 -33 -12z"/>
<path d="M232 1598 c-20 -20 -14 -48 13 -58 14 -5 25 -14 25 -20 0 -5 7 -10
16 -10 13 0 12 -5 -5 -29 -26 -36 -26 -46 -2 -63 17 -12 18 -20 11 -54 -12
-51 -5 -74 25 -74 23 0 51 31 39 43 -3 3 0 15 7 28 10 20 9 25 -10 40 -21 17
-21 19 -6 43 15 23 15 26 -3 44 -14 14 -16 23 -9 40 11 23 -5 52 -28 52 -7 0
-15 7 -19 15 -7 18 -37 20 -54 3z"/>
<path d="M0 1565 c0 -33 2 -36 15 -25 18 15 16 51 -2 58 -9 2 -13 -8 -13 -33z"/>
<path d="M1795 1590 c-3 -5 -15 -10 -25 -10 -25 0 -41 -30 -29 -53 19 -33 109
-10 109 27 0 36 -39 62 -55 36z"/>
<path d="M1870 1555 c-26 -31 13 -82 44 -56 19 16 21 42 4 59 -16 16 -33 15
-48 -3z"/>
<path d="M2832 1558 c-28 -28 -1 -75 38 -63 33 11 21 75 -15 75 -6 0 -16 -5
-23 -12z"/>
<path d="M99 1524 c-17 -21 0 -49 31 -49 31 0 48 28 31 49 -8 9 -21 16 -31 16
-10 0 -23 -7 -31 -16z"/>
<path d="M1650 1511 c-12 -23 -5 -47 16 -55 21 -8 42 3 49 25 14 42 -44 68
-65 30z"/>
<path d="M2569 1514 c-9 -11 -10 -20 -2 -32 15 -24 44 -27 59 -7 28 38 -27 75
-57 39z"/>
<path d="M4 1466 c-11 -28 1 -51 25 -51 32 0 49 28 32 49 -17 20 -50 21 -57 2z"/>
<path d="M865 1440 c-15 -17 -19 -17 -32 -5 -22 22 -39 18 -63 -15 -15 -21
-20 -39 -16 -55 5 -18 -1 -30 -24 -52 -36 -33 -38 -58 -8 -74 l22 -12 -23 -8
c-17 -7 -22 -15 -19 -36 4 -35 44 -45 66 -16 10 13 16 14 19 6 6 -18 48 -16
63 2 14 17 4 55 -15 55 -7 0 -24 6 -39 14 -26 13 -26 13 -6 31 11 10 20 28 20
40 0 11 5 26 11 32 15 15 39 5 39 -17 0 -27 28 -46 48 -33 24 14 27 41 8 62
-15 16 -15 19 -1 31 20 16 19 56 -1 64 -24 9 -29 8 -49 -14z"/>
<path d="M2284 1436 c-12 -31 0 -51 31 -51 27 0 30 3 30 30 0 25 -4 30 -28 33
-17 2 -29 -2 -33 -12z"/>
<path d="M90 1425 c-17 -20 -3 -54 26 -61 13 -3 24 -12 24 -19 0 -19 38 -29
55 -15 25 21 17 45 -24 78 -44 35 -63 39 -81 17z"/>
<path d="M2091 1396 c-7 -8 -11 -25 -9 -38 2 -18 9 -23 32 -23 36 0 56 27 40
53 -14 22 -48 27 -63 8z"/>
<path d="M1016 1384 c-17 -16 -23 -69 -7 -60 5 3 11 -3 14 -14 5 -21 -7 -28
-16 -10 -3 6 -4 5 -3 -2 1 -8 21 -14 44 -16 52 -4 61 13 37 66 -26 54 -43 63
-69 36z"/>
<path d="M1112 1388 c-17 -17 -15 -33 5 -49 15 -13 15 -12 3 8 -11 18 -12 24
-1 37 16 19 10 21 -7 4z"/>
<path d="M597 1377 c-12 -8 -18 -28 -20 -57 l-2 -45 49 3 c73 3 84 28 35 80
-34 36 -38 37 -62 19z"/>
<path d="M445 1351 c-51 -30 -26 -90 27 -64 13 6 31 14 41 17 13 4 17 14 15
33 -4 35 -39 40 -83 14z"/>
<path d="M2373 1344 c-3 -9 -1 -24 4 -34 9 -13 7 -19 -9 -29 -23 -14 -21 -49
4 -64 12 -8 21 -7 32 2 19 16 21 61 4 62 -7 0 -3 4 10 10 18 7 23 15 20 36 -2
22 -9 29 -31 31 -18 2 -29 -2 -34 -14z"/>
<path d="M2151 1326 c-21 -26 -9 -51 24 -51 27 0 30 3 30 30 0 23 -5 31 -21
33 -11 2 -26 -4 -33 -12z"/>
<path d="M1919 1293 c-13 -16 -12 -17 3 -4 10 7 25 11 33 7 22 -8 19 -47 -5
-53 -15 -4 -17 -8 -7 -19 34 -38 38 -47 33 -68 -7 -30 34 -56 59 -36 21 17 19
47 -4 62 -15 9 -17 15 -8 29 12 19 -5 49 -27 49 -6 0 -16 10 -21 22 -13 29
-38 34 -56 11z"/>
<path d="M2236 1294 c-9 -8 -16 -19 -16 -24 0 -13 30 -40 44 -40 16 0 36 20
36 36 0 14 -27 44 -40 44 -5 0 -16 -7 -24 -16z"/>
<path d="M390 1252 c-19 -16 -21 -22 -11 -40 13 -24 40 -29 59 -10 35 35 -10
81 -48 50z"/>
<path d="M472 1258 c-19 -19 -14 -44 11 -61 21 -14 24 -13 35 4 17 26 15 56
-4 63 -22 8 -28 8 -42 -6z"/>
<path d="M860 1246 c0 -2 11 -6 25 -8 13 -3 22 -1 19 3 -5 9 -44 13 -44 5z"/>
<path d="M910 1210 c-16 -23 -17 -28 -6 -24 9 3 16 1 16 -6 0 -6 12 -11 28 -9
15 1 35 -2 46 -6 22 -10 50 5 54 30 6 26 -12 37 -67 41 -46 3 -52 1 -71 -26z"/>
<path d="M1845 1230 c-4 -6 -4 -14 -1 -17 3 -4 6 -1 6 5 0 15 46 16 53 2 3 -6
4 -5 3 2 -3 17 -52 23 -61 8z"/>
<path d="M40 1215 c-6 -8 -9 -23 -5 -35 8 -25 51 -27 64 -2 20 38 -31 71 -59
37z"/>
<path d="M239 1214 c-17 -21 0 -49 31 -49 31 0 48 28 31 49 -8 9 -21 16 -31
16 -10 0 -23 -7 -31 -16z"/>
<path d="M623 1213 c-18 -7 -16 -48 3 -64 31 -26 70 25 44 56 -13 15 -25 17
-47 8z"/>
<path d="M445 1189 c-4 -6 -5 -12 -2 -15 2 -3 7 2 10 11 7 17 1 20 -8 4z"/>
<path d="M1840 1191 c0 -6 4 -13 10 -16 6 -3 7 1 4 9 -7 18 -14 21 -14 7z"/>
<path d="M1896 1183 c-6 -14 -5 -15 5 -6 7 7 10 15 7 18 -3 3 -9 -2 -12 -12z"/>
<path d="M1932 1188 c-17 -17 -15 -33 5 -49 15 -13 15 -12 3 8 -11 18 -12 24
-1 37 16 19 10 21 -7 4z"/>
<path d="M2080 1185 c-18 -22 -8 -50 21 -53 34 -4 54 20 39 47 -12 24 -42 27
-60 6z"/>
<path d="M1042 1158 c-7 -7 -12 -17 -12 -23 0 -5 -15 -10 -32 -10 -27 0 -34
-4 -36 -23 -5 -30 16 -56 33 -42 12 10 45 4 45 -9 0 -9 -43 -36 -54 -33 -5 2
2 -8 15 -22 13 -14 29 -26 35 -26 6 0 17 -7 24 -15 27 -32 78 -6 65 35 -3 11
-14 20 -23 20 -21 0 -72 59 -72 83 0 14 3 15 19 5 36 -22 69 30 39 60 -7 7
-17 12 -23 12 -6 0 -16 -5 -23 -12z"/>
<path d="M2519 1154 c-17 -21 0 -49 31 -49 31 0 48 28 31 49 -8 9 -21 16 -31
16 -10 0 -23 -7 -31 -16z"/>
<path d="M444 1148 c2 -7 15 -13 31 -13 16 0 29 6 31 13 1 7 0 8 -3 2 -2 -5
-15 -10 -28 -10 -13 0 -26 5 -28 10 -3 6 -4 5 -3 -2z"/>
<path d="M1852 1121 c-10 -6 -8 -10 8 -14 18 -5 22 -11 18 -31 -4 -22 -3 -24
14 -15 26 14 21 63 -7 67 -11 1 -26 -2 -33 -7z"/>
<path d="M1263 1104 c-9 -24 10 -49 38 -49 20 0 24 5 24 30 0 25 -4 30 -28 33
-18 2 -29 -2 -34 -14z"/>
<path d="M464 1096 c-3 -8 -4 -23 -2 -33 5 -25 61 -25 66 0 7 37 -51 67 -64
33z"/>
<path d="M2056 1073 c-19 -28 -23 -41 -15 -55 15 -27 41 -22 75 15 28 31 29
35 16 55 -21 32 -48 27 -76 -15z"/>
<path d="M2168 1083 c7 -3 16 -2 19 1 4 3 -2 6 -13 5 -11 0 -14 -3 -6 -6z"/>
<path d="M336 1064 c-19 -18 -19 -20 -6 -45 12 -21 40 -25 58 -7 18 18 14 46
-7 58 -25 13 -27 13 -45 -6z"/>
<path d="M910 1050 c-16 -16 -18 -25 -10 -40 12 -22 40 -26 58 -8 18 18 14 46
-8 58 -15 8 -24 6 -40 -10z"/>
<path d="M1329 1054 c-17 -21 0 -49 31 -49 31 0 48 28 31 49 -8 9 -21 16 -31
16 -10 0 -23 -7 -31 -16z"/>
<path d="M2242 1058 c-18 -18 -14 -46 9 -58 26 -14 49 3 49 35 0 32 -35 46
-58 23z"/>
<path d="M2140 1041 c0 -6 4 -13 10 -16 6 -3 7 1 4 9 -7 18 -14 21 -14 7z"/>
<path d="M2186 1025 c-11 -8 -15 -15 -9 -15 6 0 16 7 23 15 16 19 11 19 -14 0z"/>
<path d="M1490 1008 c-24 -38 -40 -78 -30 -78 6 0 10 -8 10 -19 0 -16 -5 -17
-32 -12 -30 7 -70 -1 -108 -19 -19 -9 -25 -47 -10 -65 15 -18 6 -45 -15 -45
-13 0 -19 13 -18 46 0 8 -9 9 -31 3 -17 -5 -32 -9 -33 -9 -2 0 -3 -11 -3 -24
0 -36 25 -52 58 -36 63 29 62 28 46 92 -5 21 -2 29 10 34 21 8 25 4 28 -29 1
-14 5 -24 9 -21 4 2 10 -5 14 -16 4 -14 15 -20 35 -20 24 0 31 6 42 38 13 39
15 46 17 75 0 10 5 16 10 13 29 -18 88 65 69 97 -13 24 -51 21 -68 -5z"/>
<path d="M700 1005 c-26 -31 13 -82 44 -56 19 16 21 42 4 59 -16 16 -33 15
-48 -3z"/>
<path d="M1705 1011 c-63 -13 -38 -74 28 -68 51 5 73 37 45 65 -13 13 -26 13
-73 3z"/>
<path d="M1971 996 c-16 -19 -5 -53 20 -61 10 -4 19 -12 19 -19 0 -21 27 -38
50 -31 25 8 27 49 3 67 -10 7 -23 22 -29 33 -14 25 -47 31 -63 11z"/>
<path d="M2561 986 c-17 -20 2 -52 34 -58 20 -4 23 -3 14 8 -16 20 -3 44 23
45 22 0 22 1 3 9 -31 13 -61 11 -74 -4z"/>
<path d="M2440 975 c-7 -9 -10 -25 -6 -41 6 -23 11 -26 37 -20 27 5 30 3 27
-17 -2 -17 -10 -22 -30 -22 -14 1 -24 -3 -22 -7 8 -13 41 -9 53 6 13 16 6 82
-12 104 -13 16 -32 15 -47 -3z"/>
<path d="M2095 960 c-4 -6 -4 -14 -1 -17 3 -4 6 -1 6 5 0 15 46 16 53 2 3 -6
4 -5 3 2 -3 17 -52 23 -61 8z"/>
<path d="M2294 956 c-11 -28 1 -51 25 -51 28 0 47 25 38 49 -8 20 -56 21 -63
2z"/>
<path d="M2661 954 c0 -11 3 -14 6 -6 3 7 2 16 -1 19 -3 4 -6 -2 -5 -13z"/>
<path d="M570 935 c-26 -31 13 -82 44 -56 19 16 21 42 4 59 -16 16 -33 15 -48
-3z"/>
<path d="M1568 929 c-14 -6 -29 -17 -32 -25 -8 -20 11 -54 29 -54 8 0 15 -8
15 -19 0 -10 7 -24 15 -31 30 -25 69 15 48 49 -8 12 -7 22 3 35 9 13 10 24 3
37 -11 21 -39 23 -81 8z"/>
<path d="M1730 915 c-26 -31 13 -82 44 -56 19 16 21 42 4 59 -16 16 -33 15
-48 -3z"/>
<path d="M2090 921 c0 -6 4 -13 10 -16 6 -3 7 1 4 9 -7 18 -14 21 -14 7z"/>
<path d="M2154 915 c-10 -8 -16 -15 -11 -15 4 0 -2 -9 -13 -20 -25 -25 -13
-57 22 -62 17 -2 22 -9 20 -23 -2 -12 0 -16 5 -9 13 18 40 23 53 11 10 -9 11
-9 5 2 -4 7 -9 36 -11 64 -6 66 -29 83 -70 52z"/>
<path d="M1831 911 c-8 -5 -15 -17 -16 -28 -1 -10 -7 -29 -14 -42 -17 -31 3
-52 50 -54 19 -1 40 -10 47 -19 14 -19 39 -15 59 10 19 23 -2 52 -37 52 -30 0
-34 6 -30 47 1 13 -7 26 -19 32 -24 13 -22 13 -40 2z"/>
<path d="M1039 834 c-17 -21 0 -48 34 -52 18 -2 27 2 32 18 13 41 -38 68 -66
34z"/>
<path d="M2780 835 c-23 -28 9 -72 45 -59 36 14 24 74 -15 74 -10 0 -23 -7
-30 -15z"/>
<path d="M1632 778 c-28 -28 -1 -75 38 -63 33 11 21 75 -15 75 -6 0 -16 -5
-23 -12z"/>
<path d="M2318 779 c-35 -20 -9 -79 27 -65 9 3 25 0 35 -7 23 -14 53 -1 58 25
5 24 -26 49 -53 42 -12 -3 -26 -1 -29 5 -9 13 -16 13 -38 0z"/>
<path d="M2120 755 c-19 -23 -8 -50 23 -53 22 -3 30 1 34 17 3 14 13 21 29 21
12 0 25 4 28 8 3 5 -8 6 -25 4 -17 -3 -29 0 -29 7 0 16 -45 14 -60 -4z"/>
<path d="M1455 749 c-4 -6 -5 -12 -2 -15 2 -3 7 2 10 11 7 17 1 20 -8 4z"/>
<path d="M1506 747 c3 -10 9 -15 12 -12 3 3 0 11 -7 18 -10 9 -11 8 -5 -6z"/>
<path d="M1842 743 c-7 -3 -17 -14 -23 -25 -20 -37 33 -67 60 -34 10 11 9 16
-2 23 -8 4 -16 15 -18 24 -2 9 -10 14 -17 12z"/>
<path d="M2983 743 c-19 -7 -16 -51 4 -62 37 -20 71 27 41 57 -13 13 -24 14
-45 5z"/>
<path d="M1440 698 c-15 -31 -1 -58 30 -58 22 0 36 17 43 55 4 17 4 24 1 18
-3 -7 -16 -13 -29 -13 -13 0 -25 6 -28 13 -2 7 -10 1 -17 -15z"/>
<path d="M2051 696 c-9 -11 -10 -20 -1 -36 21 -39 83 -7 67 34 -8 20 -50 21
-66 2z"/>
<path d="M1677 679 c-24 -14 -22 -56 4 -64 12 -4 26 -2 31 3 7 7 17 3 30 -10
37 -37 109 -3 82 40 -13 21 -60 28 -80 11 -9 -8 -14 -8 -14 -1 0 18 -34 31
-53 21z"/>
<path d="M2294 656 c-12 -31 0 -51 31 -51 27 0 30 3 30 30 0 25 -4 30 -28 33
-17 2 -29 -2 -33 -12z"/>
<path d="M2387 653 c-16 -15 -6 -52 19 -67 29 -20 53 -18 68 6 20 33 -60 89
-87 61z m80 -57 c-4 -9 -17 -16 -29 -16 -20 1 -21 2 -5 11 9 5 17 17 17 26 0
13 3 14 11 6 7 -7 9 -19 6 -27z"/>
<path d="M1902 638 c-18 -18 -14 -46 7 -58 38 -20 71 13 51 51 -12 21 -40 25
-58 7z"/>
<path d="M1338 543 c5 -21 7 -23 10 -9 2 10 0 22 -6 28 -6 6 -7 0 -4 -19z"/>
<path d="M2243 542 c-14 -9 -14 -91 0 -109 13 -18 46 -16 54 2 5 14 7 14 23 0
26 -23 54 -15 58 16 4 34 -20 54 -47 40 -29 -16 -34 -14 -29 13 6 32 -30 56
-59 38z"/>
<path d="M2473 543 c-28 -6 -40 -40 -20 -60 12 -12 24 -13 53 -7 45 11 64 35
45 58 -13 16 -33 18 -78 9z"/>
<path d="M1692 523 c-14 -26 3 -53 34 -53 14 0 27 7 31 16 15 39 -46 73 -65
37z"/>
<path d="M2680 525 c-7 -9 -11 -17 -9 -20 3 -2 10 5 17 15 14 24 10 26 -8 5z"/>
<path d="M1288 508 c6 -6 18 -8 28 -6 14 3 12 5 -9 10 -19 3 -25 2 -19 -4z"/>
<path d="M2738 502 c-6 -20 -11 -22 -41 -17 -29 6 -37 3 -46 -13 -7 -14 -7
-24 2 -37 17 -23 61 -16 65 10 2 11 11 28 19 37 8 9 13 23 11 30 -3 7 -7 2
-10 -10z"/>
<path d="M1570 495 c-6 -8 -10 -22 -8 -32 4 -25 48 -30 65 -8 26 37 -27 76
-57 40z"/>
<path d="M2010 445 c-14 -17 -5 -51 15 -59 35 -13 63 21 45 55 -13 23 -43 25
-60 4z"/>
<path d="M2598 433 c5 -21 7 -23 10 -9 2 10 0 22 -6 28 -6 6 -7 0 -4 -19z"/>
<path d="M1650 405 c-26 -31 13 -82 44 -56 19 16 21 42 4 59 -16 16 -33 15
-48 -3z"/>
<path d="M2568 393 c7 -3 16 -2 19 1 4 3 -2 6 -13 5 -11 0 -14 -3 -6 -6z"/>
<path d="M1903 374 c-8 -22 9 -48 33 -51 14 -2 12 0 -5 7 -18 8 -22 16 -19 35
6 28 1 33 -9 9z"/>
<path d="M2606 361 c-3 -4 6 -6 19 -3 14 2 25 6 25 8 0 8 -39 4 -44 -5z"/>
<path d="M2658 327 c-3 -19 -2 -25 4 -19 6 6 8 18 6 28 -3 14 -5 12 -10 -9z"/>
<path d="M1968 316 c11 -46 52 -63 71 -29 16 29 -5 54 -43 51 -28 -2 -32 -5
-28 -22z"/>
<path d="M1572 303 c-14 -26 3 -53 34 -53 14 0 27 7 31 16 15 39 -46 73 -65
37z"/>
<path d="M2322 298 c-14 -14 -16 -44 -4 -52 4 -2 8 8 7 22 0 23 4 27 27 27 14
-1 24 3 22 7 -8 12 -38 10 -52 -4z"/>
<path d="M2371 257 c-13 -21 -12 -21 5 -5 10 10 16 20 13 22 -3 3 -11 -5 -18
-17z"/>
<path d="M2127 204 c-4 -4 0 -15 9 -25 22 -24 11 -51 -18 -47 -18 2 -23 9 -23
31 1 34 -3 34 -15 2 -12 -32 -47 -33 -60 -2 -6 15 -9 17 -9 6 -1 -24 25 -42
50 -36 12 3 29 1 39 -5 14 -9 26 -7 54 6 31 15 37 22 34 44 -2 20 -9 28 -28
30 -14 2 -29 0 -33 -4z"/>
<path d="M1872 168 c-31 -31 7 -81 43 -55 23 18 16 61 -10 65 -11 1 -26 -3
-33 -10z"/>
<path d="M2770 145 c-26 -31 13 -82 44 -56 21 17 21 57 0 65 -23 9 -30 8 -44
-9z"/>
<path d="M2323 114 c-8 -22 9 -48 33 -51 14 -2 12 0 -5 7 -18 8 -22 16 -19 35
6 28 1 33 -9 9z"/>
</g>
</svg>
